<svg xmlns="http://www.w3.org/2000/svg" xmlns:xlink="http://www.w3.org/1999/xlink" width="24" height="24">
	<symbol id="instagram" viewBox="0 0 22.5 22.5">
		<title>Instagram</title>
		<path d="M 8 3 C 5.243 3 3 5.243 3 8 L 3 16 C 3 18.757 5.243 21 8 21 L 16 21 C 18.757 21 21 18.757 21 16 L 21 8 C 21 5.243 18.757 3 16 3 L 8 3 z M 8 5 L 16 5 C 17.654 5 19 6.346 19 8 L 19 16 C 19 17.654 17.654 19 16 19 L 8 19 C 6.346 19 5 17.654 5 16 L 5 8 C 5 6.346 6.346 5 8 5 z M 17 6 A 1 1 0 0 0 16 7 A 1 1 0 0 0 17 8 A 1 1 0 0 0 18 7 A 1 1 0 0 0 17 6 z M 12 7 C 9.243 7 7 9.243 7 12 C 7 14.757 9.243 17 12 17 C 14.757 17 17 14.757 17 12 C 17 9.243 14.757 7 12 7 z M 12 9 C 13.654 9 15 10.346 15 12 C 15 13.654 13.654 15 12 15 C 10.346 15 9 13.654 9 12 C 9 10.346 10.346 9 12 9 z" />
	</symbol>
	<symbol id="facebook" viewBox="0 0 30 30">
		<title>Facebook</title>
		<path d="M15,3C8.373,3,3,8.373,3,15c0,6.016,4.432,10.984,10.206,11.852V18.18h-2.969v-3.154h2.969v-2.099c0-3.475,1.693-5,4.581-5 c1.383,0,2.115,0.103,2.461,0.149v2.753h-1.97c-1.226,0-1.654,1.163-1.654,2.473v1.724h3.593L19.73,18.18h-3.106v8.697 C22.481,26.083,27,21.075,27,15C27,8.373,21.627,3,15,3z" />
	</symbol>
	<symbol id="pinterest" viewBox="0 0 30 30">
		<title>Pinterest</title>
		<path d="M15,3C8.373,3,3,8.373,3,15c0,5.084,3.163,9.426,7.627,11.174c-0.105-0.949-0.2-2.406,0.042-3.442 c0.218-0.936,1.407-5.965,1.407-5.965s-0.359-0.719-0.359-1.781c0-1.669,0.967-2.914,2.171-2.914c1.024,0,1.518,0.769,1.518,1.69 c0,1.03-0.655,2.569-0.994,3.995c-0.283,1.195,0.599,2.169,1.777,2.169c2.133,0,3.772-2.249,3.772-5.495 c0-2.873-2.064-4.882-5.012-4.882c-3.414,0-5.418,2.561-5.418,5.208c0,1.031,0.397,2.137,0.893,2.739 c0.098,0.119,0.112,0.223,0.083,0.344c-0.091,0.379-0.293,1.194-0.333,1.361c-0.052,0.22-0.174,0.266-0.401,0.16 c-1.499-0.698-2.436-2.889-2.436-4.649c0-3.785,2.75-7.262,7.929-7.262c4.163,0,7.398,2.966,7.398,6.931 c0,4.136-2.608,7.464-6.227,7.464c-1.216,0-2.359-0.632-2.75-1.378c0,0-0.602,2.291-0.748,2.853 c-0.271,1.042-1.002,2.349-1.492,3.146C12.57,26.812,13.763,27,15,27c6.627,0,12-5.373,12-12S21.627,3,15,3z" />
	</symbol>
	<symbol id="menu" viewBox="0 0 24 24">
		<title>Menu</title>
		<path d="M 3 7 A 1.0001 1.0001 0 1 0 3 9 L 27 9 A 1.0001 1.0001 0 1 0 27 7 L 3 7 z M 3 14 A 1.0001 1.0001 0 1 0 3 16 L 27 16 A 1.0001 1.0001 0 1 0 27 14 L 3 14 z M 3 21 A 1.0001 1.0001 0 1 0 3 23 L 27 23 A 1.0001 1.0001 0 1 0 27 21 L 3 21 z" />
	</symbol>
	<symbol id="close" viewBox="0 0 24 24">
		<title>Close</title>
		<path d="M 4.7070312 3.2929688 L 3.2929688 4.7070312 L 10.585938 12 L 3.2929688 19.292969 L 4.7070312 20.707031 L 12 13.414062 L 19.292969 20.707031 L 20.707031 19.292969 L 13.414062 12 L 20.707031 4.7070312 L 19.292969 3.2929688 L 12 10.585938 L 4.7070312 3.2929688 z" />
	</symbol>
</svg>
