<svg viewBox="0 0 1024 1024">
    <path d="M918.795922 356.854687c-21.798121-51.476314-52.909055-97.631021-92.514092-137.236058-39.605037-39.605037-85.862083-70.818309-137.236058-92.514092C635.727364 104.590046 579.236458 93.128123 520.903458 93.128123s-114.823906 11.461923-168.142315 33.976414c-51.476314 21.798121-97.631021 52.909055-137.236058 92.514092s-70.818309 85.862083-92.514092 137.236058C100.496502 410.173096 89.034579 466.664002 89.034579 524.997002s11.461923 114.823906 33.976414 168.142315c21.798121 51.476314 52.909055 97.631021 92.514092 137.236058 39.605037 39.605037 85.862083 70.818309 137.236058 92.514092 53.21607 22.514491 109.809314 33.976414 168.142315 33.976414s114.823906-11.461923 168.142315-33.976414c51.476314-21.798121 97.631021-52.909055 137.236058-92.514092 39.605037-39.605037 70.818309-85.862083 92.514092-137.236058 22.514491-53.21607 33.976414-109.809314 33.976414-168.142315S941.310414 410.173096 918.795922 356.854687zM520.903458 911.836898c-213.273636 0-386.839896-173.56626-386.839896-386.839896s173.56626-386.839896 386.839896-386.839896 386.839896 173.56626 386.839896 386.839896S734.177094 911.836898 520.903458 911.836898zM545.055367 527.555467l105.204078-105.204078c8.801119-8.801119 8.801119-23.128523 0-31.827304l0 0c-8.801119-8.801119-23.128523-8.801119-31.827304 0L513.228063 495.728163 407.512293 390.114731c-8.801119-8.801119-23.128523-8.801119-31.827304 0l0 0c-8.801119 8.801119-8.801119 23.128523 0 31.827304l105.613432 105.613432L375.173296 633.680592c-8.801119 8.801119-8.801119 23.128523 0 31.827304 8.801119 8.801119 23.128523 8.801119 31.827304 0l106.125125-106.125125 105.613432 105.613432c8.801119 8.801119 23.128523 8.801119 31.827304 0 8.801119-8.801119 8.801119-23.128523 0-31.827304L545.055367 527.555467z" />
</svg>